<?xml version="1.0" encoding="UTF-8" standalone="no"?>
<!-- Generator: Adobe Illustrator 13.0.1, SVG Export Plug-In . SVG Version: 6.00 Build 14948)  -->
<svg
   xmlns:dc="http://purl.org/dc/elements/1.1/"
   xmlns:cc="http://web.resource.org/cc/"
   xmlns:rdf="http://www.w3.org/1999/02/22-rdf-syntax-ns#"
   xmlns:svg="http://www.w3.org/2000/svg"
   xmlns="http://www.w3.org/2000/svg"
   xmlns:sodipodi="http://sodipodi.sourceforge.net/DTD/sodipodi-0.dtd"
   xmlns:inkscape="http://www.inkscape.org/namespaces/inkscape"
   version="1.1"
   id="Layer_1"
   x="0px"
   y="0px"
   width="724.121px"
   height="724.113px"
   viewBox="0 0 724.121 724.113"
   enable-background="new 0 0 724.121 724.113"
   xml:space="preserve"
   sodipodi:version="0.32"
   inkscape:version="0.45.1"
   sodipodi:docname="TTB2.svg"
   inkscape:output_extension="org.inkscape.output.svg.inkscape"><metadata
   id="metadata248"><rdf:RDF><cc:Work
       rdf:about=""><dc:format>image/svg+xml</dc:format><dc:type
         rdf:resource="http://purl.org/dc/dcmitype/StillImage" /></cc:Work></rdf:RDF></metadata><defs
   id="defs246">
	
</defs><sodipodi:namedview
   inkscape:window-height="581"
   inkscape:window-width="697"
   inkscape:pageshadow="2"
   inkscape:pageopacity="0.0"
   guidetolerance="10.0"
   gridtolerance="10.0"
   objecttolerance="10.0"
   borderopacity="1.0"
   bordercolor="#666666"
   pagecolor="#ffffff"
   id="base"
   inkscape:zoom="2"
   inkscape:cx="445.84211"
   inkscape:cy="277.62794"
   inkscape:window-x="523"
   inkscape:window-y="31"
   inkscape:current-layer="Layer_1" />
<path
   fill="#FFFFFF"
   d="M362.056,722.056c198.828,0,360.008-161.18,360.008-360c0-198.828-161.18-360-360.008-360  c-198.812,0-360,161.172-360,360C2.056,560.876,163.244,722.056,362.056,722.056"
   id="path3" />
<path
   style="fill:#003a6c;stroke:#ffffff;stroke-width:4.11280012;fill-opacity:1;stroke-opacity:1"
   id="path7"
   d="M 362.056,722.056 C 560.884,722.056 722.064,560.876 722.064,362.056 C 722.064,163.228 560.884,2.056 362.056,2.056 C 163.244,2.056 2.056,163.228 2.056,362.056 C 2.056,560.876 163.244,722.056 362.056,722.056 z " />
<path
   fill="#FFFFFF"
   d="M362.056,707.533c190.805,0,345.484-154.68,345.484-345.477S552.861,16.58,362.056,16.58  c-190.797,0-345.469,154.68-345.469,345.477S171.259,707.533,362.056,707.533"
   id="path9" />
<path
   fill="none"
   stroke="#292526"
   stroke-width="4.0758"
   d="M362.056,707.533c190.805,0,345.484-154.68,345.484-345.477  S552.861,16.58,362.056,16.58c-190.797,0-345.469,154.68-345.469,345.477S171.259,707.533,362.056,707.533z"
   id="path11"
   style="stroke:#ffffff;stroke-opacity:1;fill:#003a6c;fill-opacity:1;stroke-width:4.07600016;stroke-miterlimit:4;stroke-dasharray:none" />
<path
   fill="#292526"
   d="M362.056,624.236c144.797,0,262.188-117.383,262.188-262.18c0-144.789-117.391-262.172-262.188-262.172  c-144.789,0-262.18,117.383-262.18,262.172C99.876,506.853,217.267,624.236,362.056,624.236"
   id="path13"
   style="fill:#003a6c;fill-opacity:1;stroke:#ffffff;stroke-opacity:1;stroke-width:4.07600016;stroke-miterlimit:4;stroke-dasharray:none" /><path
   style="fill:#6c98ef;fill-opacity:1;stroke:#6c98ef;stroke-opacity:1"
   d="M 361.06251,293.11299 L 544.84381,426.76924 L 529.56251,500.61299 L 362.06251,382.05049 L 198.53126,498.08174 L 177.75001,428.30049 L 361.06251,293.11299 z "
   id="path3408" /><path
   fill="none"
   stroke="#FFFFFF"
   stroke-width="2.5323"
   d="M545.361,424.236c2.578,25.008,1.594,55.43-16.023,77.477   M176.783,425.087c-5.414,40.781,11.93,63.016,23.047,77.367"
   id="path107"
   style="stroke:#f0d52e;stroke-opacity:1;fill:#6c98ef;fill-opacity:1" />
<path
   fill="#FFFFFF"
   d="M175.009,430.322l12.305-152.125c-1.109-59.633-20.898-65.281-20.898-65.281l77.477-46.688  c73.555,42.414,117.141-13.18,117.141-13.18c65.148,62.398,120.328,14.375,120.328,14.375l80.742,46.109  c-25.93,28.07-21.828,48.617-21.828,48.617l6.664,166.164L361.064,293.119L175.009,430.322"
   id="path15"
   style="fill:#f0d52e;fill-opacity:1" />
<path
   fill="#FFFFFF"
   d="M362.908,608.275c0,0,20.32-29.078,84.57-44.375c0,0,44.336-1.508,83.406-62.344L362.056,382.041  L196.189,499.736c41.469,61.172,85.969,62.422,85.969,62.422C350.314,585.494,362.908,608.275,362.908,608.275"
   id="path17"
   style="fill:#f0d52e;fill-opacity:1" />
<polyline
   fill="#FFFFFF"
   points="190.509,468.423 193.501,459.369 185.822,453.736 195.353,453.783 198.337,444.744   201.236,453.806 210.775,453.853 203.041,459.431 205.931,468.494 198.244,462.861 190.509,468.423 "
   id="polyline19" />
<polyline
   fill="#FFFFFF"
   points="219.509,445.001 222.486,435.955 214.806,430.314 224.33,430.361 227.33,421.314 230.236,430.384   239.751,430.439 232.017,436.001 234.923,445.072 227.236,439.439 219.509,445.001 "
   id="polyline21" />
<polyline
   fill="#FFFFFF"
   points="248.744,425.041 251.736,416.009 244.048,410.361 253.58,410.416 256.58,401.369 259.47,410.431   269.001,410.494 261.259,416.056 264.158,425.126 256.486,419.494 248.744,425.041 "
   id="polyline23" />
<polyline
   fill="#FFFFFF"
   points="276.595,405.189 279.603,396.134 271.916,390.501 281.447,390.556 284.423,381.494 287.33,390.587   296.861,390.626 289.119,396.181 292.025,405.259 284.337,399.619 276.595,405.189 "
   id="polyline25" />
<polyline
   fill="#FFFFFF"
   points="303.087,385.416 306.064,376.369 298.392,370.728 307.916,370.775 310.916,361.728   313.806,370.806 323.33,370.861 315.595,376.416 318.501,385.494 310.822,379.853 303.087,385.416 "
   id="polyline27" />
<polyline
   fill="#FFFFFF"
   points="329.556,365.642 332.548,356.603 324.869,350.962 334.4,351.009 337.384,341.962 340.291,351.033   349.814,351.08 342.08,356.642 344.986,365.712 337.306,360.087 329.556,365.642 "
   id="polyline29" />
<polyline
   fill="#FFFFFF"
   points="354.751,347.353 357.736,338.298 350.056,332.666 359.58,332.712 362.572,323.658 365.478,332.751   374.994,332.783 367.259,338.345 370.166,347.423 362.486,341.783 354.751,347.353 "
   id="polyline31" />
<polyline
   fill="#FFFFFF"
   points="380.986,366.462 383.962,357.416 376.291,351.775 385.822,351.814 388.806,342.775   391.712,351.845 401.244,351.892 393.501,357.462 396.392,366.533 388.712,360.9 380.986,366.462 "
   id="polyline33" />
<polyline
   fill="#FFFFFF"
   points="408.603,385.494 411.572,376.431 403.923,370.806 413.431,370.853 416.423,361.791   419.322,370.884 428.845,370.931 421.103,376.486 424.017,385.564 416.33,379.923 408.603,385.494 "
   id="polyline35" />
<polyline
   fill="#FFFFFF"
   points="435.111,408.751 438.087,399.712 430.408,394.072 439.939,394.111 442.931,385.072 445.83,394.142   455.361,394.189 447.619,399.751 450.517,408.822 442.845,403.197 435.111,408.751 "
   id="polyline37" />
<polyline
   fill="#FFFFFF"
   points="462.712,427.767 465.697,418.736 458.025,413.103 467.556,413.142 470.548,404.095   473.439,413.173 482.962,413.22 475.228,418.775 478.134,427.853 470.447,422.212 462.712,427.767 "
   id="polyline39" />
<polyline
   fill="#FFFFFF"
   points="490.337,446.806 493.33,437.751 485.634,432.119 495.166,432.173 498.166,423.119 501.064,432.205   510.595,432.236 502.853,437.814 505.744,446.876 498.072,441.236 490.337,446.806 "
   id="polyline41" />
<polyline
   fill="#FFFFFF"
   points="519.689,471.267 522.681,462.228 515.001,456.587 524.541,456.626 527.517,447.587   530.416,456.658 539.947,456.712 532.197,462.267 535.095,471.345 527.423,465.712 519.689,471.267 "
   id="polyline43" />
<path
   fill="#292526"
   d="M433.923,510.595c1.375,17.359,7.281,30.727,23.375,30.836c19.406,0.125,22.508-19.086,22.508-40.867  c0-21.773-3.797-37.984-22.672-37.922c-17.742,0.047-22.422,12.812-23.234,30.984l-0.148-0.156c0,0-6.406,1.023-7.789-4.172  c0,0-1.383,4.508-7.273,4.328l-184.711,0.18c-11.305,9.18,0.117,16.461,0.117,16.461h9v25.969h20.781v-20.773h-8.312l0.172,4.844  h-4.672v-9.711h29.289l-0.047,9.703l-4.312,0.008l-0.172-4.883l-8.312-0.031l-0.102,20.781l20.875,0.25v-25.648l131.969-0.18  c4.5,0.18,6.227,5.375,6.227,5.375C427.681,509.923,433.923,510.595,433.923,510.595"
   id="path45"
   style="fill:#6c98ef;fill-opacity:1" />
<path
   fill="#292526"
   d="M296.869,514.298c6.688,0,12.125-5.641,12.125-12.617c0-6.961-5.438-12.602-12.125-12.602  c-6.703,0-12.125,5.641-12.125,12.602C284.744,508.658,290.166,514.298,296.869,514.298"
   id="path47"
   style="fill:#6c98ef;fill-opacity:1" />
<path
   fill="none"
   stroke="#FFFFFF"
   stroke-width="1.5527"
   d="M234.962,496.58h47.609 M281.009,526.369h3.812v-12.477   M254.009,526.369h4.672v-2.773 M245.353,511.126v23.211"
   id="path49" />
<path
   fill="#FFFFFF"
   d="M288.814,499.181c1.031-5.375,6.406-7.102,6.406-7.102C287.259,491.212,288.814,499.181,288.814,499.181"
   id="path51" />
<line
   fill="none"
   stroke="#FFFFFF"
   stroke-width="1.5527"
   x1="310.806"
   y1="496.751"
   x2="413.837"
   y2="496.751"
   id="line53" />
<path
   fill="#FFFFFF"
   d="M423.197,495.009c2.07,0.188,3.117-2.414,3.117-2.414C424.22,492.955,423.197,495.009,423.197,495.009"
   id="path55" />
<path
   fill="none"
   stroke="#FFFFFF"
   stroke-width="1.5527"
   d="M472.197,507.666c4.156,8.141,0,19.727,0,19.727 M472.541,479.439  c3.289,6.938-1.203,17.312-1.203,17.312 M447.603,467.494c-6.578,4.492-9.875,13.852-10.562,25.461  c-0.688,11.594,0.023,20.836,2.25,29.078c2.781,10.227,10.047,14.711,10.047,14.711"
   id="path57" />
<path
   fill="#292526"
   d="M372.626,264.705l-2.109-28.742h83.148c3.703,14.336,18.531,17.656,18.531,17.656l11.086-0.156  c18.797-9.57,20.102-26.328,20.102-26.328l-9.945-2.188c-15.148,23.195-30.508,0.594-30.508,0.594l-80.773-18.195l-13.164,11.375  l-7.836-38.508l-6.961,38.539l-13.266-11.812l-83.234,17.523c0,0-15.531,22.484-30.5-0.852l-9.945,2.125  c0,0,1.141,16.766,19.875,26.477l11.078,0.266c0,0,14.617-2.211,18.445-16.516l84.734-0.336l0.117-0.016l-1.25,29.195  c2.984,10.297,11.281,9.25,11.281,9.25C371.587,275.103,372.626,264.705,372.626,264.705"
   id="path59"
   style="fill:#6c98ef;fill-opacity:1" />
<path
   fill="none"
   stroke="#FFFFFF"
   stroke-width="1.5527"
   d="M244.83,239.416c10.734-1.375,14.891-11.07,14.891-11.07l79.656-18.359  l2.773,3.117"
   id="path61" />
<polyline
   fill="#FFFFFF"
   points="220.587,227.658 223.009,234.58 222.673,226.955 220.587,227.658 "
   id="polyline63" />
<polygon
   fill="none"
   stroke="#FFFFFF"
   stroke-width="1.5527"
   points="220.587,227.658 223.009,234.58 222.673,226.955 "
   id="polygon65" />
<path
   fill="#FFFFFF"
   d="M476.705,237.353c11.594,2.766,18.523-10.219,18.523-10.219l5.539,1.211  C492.455,244.275,476.705,237.353,476.705,237.353"
   id="path67" />
<path
   fill="none"
   stroke="#FFFFFF"
   stroke-width="1.5527"
   d="M374.595,218.642l7.625-6.922l8.312,1.383 M355.306,236.314  l-0.68,26.656c-0.352,5.547,5.883,6.922,5.883,6.922"
   id="path69" />
<path
   fill="#292526"
   d="M483.111,261.595l35.625,64.234c0,0-33.727,57.734-78.977,2.359l34.344-66.242L483.111,261.595"
   id="path71"
   style="fill:#6c98ef;fill-opacity:1" />
<path
   fill="#FFFFFF"
   d="M454.705,337.087c-5.367-3.109-7.266-7.969-7.266-7.969l48.148,0.18c-1.742,8.312-10.75,14.375-10.75,14.375  c6.062-6.742,5.891-12.992,5.891-12.992h-36.891C452.291,332.767,454.705,337.087,454.705,337.087"
   id="path73" />
<path
   fill="#292526"
   d="M237.947,259.658l-36.141,63.945c0,0,33.258,58,78.953,3.008l-33.812-66.531L237.947,259.658"
   id="path75"
   style="fill:#6c98ef;fill-opacity:1" />
<polyline
   fill="#FFFFFF"
   points="243.259,258.595 243.095,324.275 276.572,324.041 243.259,258.595 "
   id="polyline77"
   style="fill:#f0d52e;fill-opacity:1" />
<polygon
   fill="none"
   stroke="#292526"
   stroke-width="0.7763"
   points="243.259,258.595 243.095,324.275 276.572,324.041 "
   id="polygon79"
   style="stroke:#6c98ef;stroke-opacity:1" />
<polyline
   fill="#FFFFFF"
   points="239.939,261.314 239.978,323.931 204.658,323.931 239.939,261.314 "
   id="polyline81"
   style="fill:#f0d52e;fill-opacity:1" />
<polygon
   fill="none"
   stroke="#292526"
   stroke-width="0.7763"
   points="239.939,261.314 239.978,323.931 204.658,323.931 "
   id="polygon83"
   style="stroke:#6c98ef;stroke-opacity:1" />
<path
   fill="#FFFFFF"
   d="M229.939,331.384c-5.375-1.602-7.266-4.102-7.266-4.102l48.133,0.086  c-1.734,4.289-10.734,7.406-10.734,7.406c6.055-3.477,5.875-6.68,5.875-6.68h-36.891  C227.509,329.15,229.939,331.384,229.939,331.384"
   id="path85" />
<path
   fill="#FFFFFF"
   d="M463.416,501.455c3.766,2.664,6.453,7.852,6.805,14.062c0.531,9.539-4.648,17.859-11.578,18.594  c-6.938,0.727-13-6.391-13.531-15.914c-0.375-6.586,1.969-12.57,5.734-15.906l0.656-0.625c-3.734-2.719-6.383-7.961-6.68-14.172  c-0.445-9.539,4.812-17.781,11.742-18.406c6.945-0.625,12.945,6.609,13.398,16.148c0.312,6.578-2.086,12.523-5.891,15.805  L463.416,501.455"
   id="path87"
   style="fill:#f0d52e;fill-opacity:1" />
<polyline
   fill="#FFFFFF"
   points="477.4,262.814 477.181,325.658 443.978,325.658 477.4,262.814 "
   id="polyline89"
   style="fill:#f0d52e;fill-opacity:1" />
<polygon
   fill="none"
   stroke="#292526"
   stroke-width="0.7763"
   points="477.4,262.814 477.181,325.658 443.978,325.658 "
   id="polygon91"
   style="stroke:#6c98ef;stroke-opacity:1" />
<polyline
   fill="#FFFFFF"
   points="480.33,262.455 480.556,325.494 515.494,325.494 480.33,262.455 "
   id="polyline93"
   style="fill:#f0d52e;fill-opacity:1" />
<polygon
   fill="none"
   stroke="#292526"
   stroke-width="0.7763"
   points="480.33,262.455 480.556,325.494 515.494,325.494 "
   id="polygon95"
   style="stroke:#6c98ef;stroke-opacity:1" />
<path
   fill="#292526"
   d="M242.236,263.525c3.586,0,6.484-2.961,6.484-6.609c0-3.656-2.898-6.602-6.484-6.602  c-3.594,0-6.484,2.945-6.484,6.602C235.751,260.564,238.642,263.525,242.236,263.525"
   id="path97"
   style="fill:#6c98ef;fill-opacity:1" />
<path
   fill="#FFFFFF"
   d="M242.322,261.611c2.422,0,4.398-2.141,4.398-4.773c0-2.641-1.977-4.789-4.398-4.789  c-2.43,0-4.414,2.148-4.414,4.789C237.908,259.47,239.892,261.611,242.322,261.611"
   id="path99" />
<path
   fill="#292526"
   d="M478.345,264.908c3.586,0,6.492-2.953,6.492-6.609c0-3.648-2.906-6.617-6.492-6.617  c-3.578,0-6.492,2.969-6.492,6.617C471.853,261.955,474.767,264.908,478.345,264.908"
   id="path101"
   style="fill:#6c98ef;fill-opacity:1" />
<path
   fill="#FFFFFF"
   d="M478.439,263.001c2.422,0,4.391-2.148,4.391-4.781c0-2.648-1.969-4.781-4.391-4.781  c-2.438,0-4.414,2.133-4.414,4.781C474.025,260.853,476.001,263.001,478.439,263.001"
   id="path103" />
<polyline
   fill="#292526"
   points="372.744,655.947 386.345,645.947 381.22,662.041 394.923,671.876 378.041,671.962 372.908,688.041   367.783,671.962 350.908,671.876 364.595,662.041 359.478,645.947 372.744,655.947 "
   id="polyline105"
   style="fill:#ffffff;fill-opacity:1" />

<g
   id="g109"
   style="fill:#ffffff;fill-opacity:1">
	<path
   fill="#292526"
   d="M330.608,639.814l-0.26,1.296c-1.837-0.157-3.32,0.248-4.448,1.217c-1.128,0.97-3.298,3.805-6.508,8.505   l-21.42,31.362l-1.391-0.278l-9.469-43.085c-0.634-2.854-1.234-4.662-1.805-5.423c-0.568-0.761-1.648-1.418-3.241-1.972l0.26-1.296   l17.763,3.559l-0.26,1.296c-2.078-0.229-3.438-0.271-4.081-0.129c-0.642,0.142-1.065,0.722-1.27,1.74   c-0.068,0.339-0.074,0.962-0.02,1.867s0.192,1.874,0.41,2.906l1.45,7.279l18.408,3.688c2.729-4.207,4.372-6.778,4.926-7.714   c0.555-0.938,0.891-1.698,1.009-2.287c0.235-1.177-0.078-2.087-0.942-2.73c-0.535-0.391-1.606-0.816-3.214-1.279l0.26-1.296   L330.608,639.814z M296.931,651.726l4.15,20.839l11.896-17.624L296.931,651.726z"
   id="path111"
   style="fill:#ffffff;fill-opacity:1" />
</g>
<g
   id="g113"
   style="fill:#ffffff;fill-opacity:1">
	<path
   fill="#292526"
   d="M282.02,631.116c-2.549-0.666-4.303-0.829-5.263-0.488c-0.959,0.34-1.911,1.762-2.856,4.265l-11.191,29.646   c-0.893,2.363-1.118,4.045-0.676,5.043c0.44,0.996,1.866,2.048,4.273,3.155l-0.467,1.237l-18.81-7.101l0.467-1.237   c2.501,0.796,4.296,1.015,5.385,0.657c1.089-0.356,2.052-1.643,2.887-3.854l12.089-32.021c0.278-0.738,0.372-1.365,0.283-1.883   c-0.091-0.518-0.539-0.99-1.345-1.418c-0.476-0.254-0.985-0.497-1.531-0.727c-0.546-0.231-1.579-0.634-3.1-1.208   c-5.93-2.238-10.122-3.264-12.576-3.074s-5.415,1.922-8.885,5.197l-1.695-0.64l7.62-10.323l35.857,13.537L282.02,631.116z"
   id="path115"
   style="fill:#ffffff;fill-opacity:1" />
</g>
<g
   id="g117"
   style="fill:#ffffff;fill-opacity:1">
	<path
   fill="#292526"
   d="M191.233,639.476c-1.979-2.007-3.11-3.09-3.393-3.251c-0.584-0.332-1.23-0.486-1.938-0.462   c-0.707,0.024-1.356,0.322-1.948,0.893l-1.3-0.74l7.337-14.233l1.421,0.808c-0.744,3.231-0.933,6.072-0.566,8.522   c0.728,4.629,3.239,8.165,7.532,10.607c4.333,2.465,8.85,2.767,13.55,0.905c4.701-1.861,8.76-5.796,12.176-11.802   c3.142-5.523,4.204-10.755,3.186-15.696c-1.018-4.94-3.744-8.672-8.178-11.194c-3.205-1.823-6.593-2.736-10.166-2.741   c-2.045-0.017-4.494,0.325-7.346,1.023l-0.495-1.803c2.357-0.953,4.926-1.507,7.707-1.658c4.729-0.245,9.118,0.785,13.169,3.09   c6.651,3.783,10.722,8.913,12.213,15.391c1.373,5.983,0.384,11.917-2.964,17.803c-3.428,6.026-8.209,10.002-14.347,11.927   c-6.453,2.012-12.895,1.188-19.325-2.469C195.323,643.123,193.214,641.483,191.233,639.476z"
   id="path119"
   style="fill:#ffffff;fill-opacity:1" />
</g>
<g
   id="g121"
   style="fill:#ffffff;fill-opacity:1">
	<path
   fill="#292526"
   d="M170.819,620.04c-6.05,0.472-11.552-1.317-16.505-5.371c-4.971-4.067-7.816-9.123-8.535-15.165   c-0.785-6.546,1.23-12.762,6.047-18.648c4.89-5.976,10.685-9.174,17.382-9.597c5.995-0.368,11.406,1.423,16.233,5.373   c5.168,4.229,8.026,9.49,8.572,15.779c0.542,6.405-1.479,12.408-6.061,18.007C183.135,616.304,177.424,619.511,170.819,620.04z    M188.802,589.653c-0.013-4.641-1.681-8.32-5.004-11.04c-3.252-2.661-7.137-3.586-11.657-2.774   c-4.518,0.812-9.208,4.188-14.069,10.128c-4.92,6.012-7.306,11.31-7.158,15.896c0.147,4.585,1.82,8.187,5.018,10.804   c3.306,2.705,7.239,3.609,11.798,2.71c4.56-0.897,9.219-4.254,13.977-10.068C186.45,599.51,188.815,594.292,188.802,589.653z"
   id="path123"
   style="fill:#ffffff;fill-opacity:1" />
</g>
<g
   id="g125"
   style="fill:#ffffff;fill-opacity:1">
	<path
   fill="#292526"
   d="M164.49,562.464c-2.042-1.914-3.565-2.898-4.57-2.951c-1.005-0.054-2.671,0.92-4.998,2.922l-23.392,20.119   c-1.934,1.663-2.938,3.039-3.011,4.126c-0.073,1.089,0.674,2.687,2.242,4.794l-1.002,0.862l-12.884-14.979l1.002-0.862   c1.841,1.855,3.306,2.831,4.397,2.926c1.092,0.096,2.605-0.688,4.539-2.352l10.522-9.05l-14.108-16.403l-10.522,9.05   c-1.934,1.663-2.941,3.035-3.022,4.113c-0.081,1.08,0.67,2.682,2.253,4.807l-1.002,0.862L98.05,555.469l1.002-0.862   c1.85,1.866,3.318,2.844,4.404,2.934c1.087,0.091,2.597-0.697,4.531-2.36l24.024-20.663c1.958-1.685,2.96-3.058,3.004-4.12   c0.044-1.062-0.7-2.662-2.234-4.8l1.002-0.861l12.883,14.979l-1.002,0.861c-2.039-1.946-3.562-2.938-4.567-2.975   c-1.006-0.037-2.673,0.944-5,2.946l-10.496,9.027l14.108,16.403l11.129-9.572c1.958-1.685,2.961-3.064,3.009-4.141   c0.049-1.075-0.698-2.668-2.24-4.78l1.002-0.861l12.884,14.979L164.49,562.464z"
   id="path127"
   style="fill:#ffffff;fill-opacity:1" />
</g>
<g
   id="g129"
   style="fill:#ffffff;fill-opacity:1">
	<path
   d="M93.225,538.616c-5.846-1.629-10.401-5.196-13.666-10.701c-3.276-5.524-4.217-11.249-2.822-17.171   c1.505-6.419,5.528-11.568,12.07-15.448c6.642-3.938,13.182-4.959,19.618-3.061c5.759,1.708,10.228,5.245,13.41,10.61   c3.406,5.744,4.289,11.665,2.646,17.761c-1.686,6.203-5.642,11.15-11.865,14.841C106.075,539.326,99.611,540.383,93.225,538.616z    M120.531,516.23c1.578-4.363,1.271-8.393-0.919-12.087c-2.143-3.613-5.476-5.814-10-6.6c-4.523-0.786-10.086,0.778-16.688,4.693   c-6.682,3.963-10.739,8.123-12.171,12.481c-1.433,4.357-1.095,8.314,1.012,11.868c2.179,3.675,5.564,5.871,10.155,6.59   c4.592,0.718,10.119-0.838,16.581-4.671C114.944,524.685,118.954,520.593,120.531,516.23z"
   id="path131"
   fill="#292526"
   style="fill:#ffffff;fill-opacity:1" />
</g>
<g
   id="g133"
   style="fill:#ffffff;fill-opacity:1">
	<path
   fill="#292526"
   d="M107.39,482.446c-1.212-2.34-2.265-3.751-3.161-4.235c-0.894-0.485-2.588-0.24-5.08,0.733L69.636,490.48   c-2.354,0.92-3.753,1.878-4.199,2.874c-0.445,0.995-0.271,2.759,0.518,5.288l-1.231,0.481l-7.32-18.726l1.231-0.481   c1.083,2.391,2.123,3.87,3.117,4.439c0.995,0.57,2.593,0.425,4.796-0.437l31.878-12.46c0.735-0.287,1.263-0.638,1.588-1.051   c0.323-0.414,0.375-1.063,0.153-1.948c-0.13-0.523-0.291-1.064-0.485-1.625c-0.194-0.56-0.587-1.596-1.179-3.11   c-2.308-5.902-4.354-9.703-6.137-11.398c-1.783-1.696-5.052-2.736-9.809-3.121l-0.66-1.687l12.769-1.251l13.954,35.696   L107.39,482.446z"
   id="path135"
   style="fill:#ffffff;fill-opacity:1" />
</g>
<g
   id="g137"
   style="fill:#ffffff;fill-opacity:1">
	<path
   fill="#292526"
   d="M90.11,432.663l-1.303,0.224c-0.514-1.771-1.426-3.008-2.736-3.712c-1.31-0.704-4.736-1.709-10.277-3.013   l-36.968-8.704l-0.24-1.397l36.794-24.334c2.436-1.618,3.906-2.829,4.411-3.635c0.505-0.804,0.73-2.049,0.674-3.733l1.303-0.224   l3.069,17.854l-1.303,0.224c-0.535-2.02-0.984-3.305-1.347-3.854c-0.364-0.548-1.058-0.735-2.081-0.56   c-0.341,0.059-0.923,0.277-1.749,0.653c-0.825,0.378-1.68,0.854-2.564,1.429l-6.271,3.972l3.18,18.503   c4.907,1.033,7.898,1.641,8.97,1.821c1.074,0.181,1.905,0.22,2.497,0.118c1.183-0.203,1.919-0.823,2.209-1.861   c0.171-0.64,0.184-1.792,0.038-3.459l1.303-0.224L90.11,432.663z M66.881,405.526L48.93,416.895l20.724,4.76L66.881,405.526z"
   id="path139"
   style="fill:#ffffff;fill-opacity:1" />
</g>
<g
   id="g141"
   style="fill:#ffffff;fill-opacity:1">
	<path
   fill="#292526"
   d="M80.435,384.209c-0.288-2.947-0.945-4.84-1.973-5.68c-1.027-0.84-3.417-1.268-7.171-1.285L39.906,377.1   l-1.151,0.969c-1.233,1.038-1.996,1.922-2.289,2.65c-0.293,0.729-0.466,1.824-0.52,3.285l-1.322-0.007l0.056-12.154l34.21-27.342   l-23.673-0.108c-3.894-0.019-6.431,0.55-7.611,1.704c-0.764,0.762-1.267,2.452-1.51,5.071l-1.322-0.007l0.077-16.73l1.322,0.006   c0.266,2.715,0.918,4.526,1.958,5.436c1.039,0.909,3.426,1.373,7.159,1.39l37.497,0.173l-0.005,1.218l-39.208,31.334l27.731,0.127   c3.893,0.019,6.432-0.538,7.619-1.669c0.768-0.738,1.297-2.395,1.586-4.967l1.322,0.006l-0.077,16.731L80.435,384.209z"
   id="path143"
   style="fill:#ffffff;fill-opacity:1" />
</g>
<g
   id="g145"
   style="fill:#ffffff;fill-opacity:1">
	<path
   fill="#292526"
   d="M80.692,334.319c0.191-2.604,0.033-4.354-0.473-5.247c-0.506-0.893-2.075-1.578-4.708-2.055l-31.181-5.652   c-2.555-0.463-4.266-0.385-5.132,0.236c-0.866,0.621-1.627,2.215-2.281,4.783l-1.301-0.236l3.425-18.893   c1.154-6.366,3.181-11.561,6.078-15.584c5.204-7.258,12.655-10.008,22.353-8.25c3.49,0.632,6.681,1.947,9.571,3.944   c2.891,1.997,5.159,4.629,6.805,7.897c1.039,2.074,1.733,4.155,2.084,6.246c0.675,3.823,0.538,8.347-0.409,13.571l-3.53,19.474   L80.692,334.319z M81.403,319.866c0.467-0.493,0.859-1.618,1.178-3.375c0.993-5.476,0.725-10.179-0.804-14.109   c-2.349-6.034-7.555-9.783-15.616-11.244c-7.192-1.304-13.01-0.048-17.452,3.765c-3.801,3.271-6.273,8.066-7.419,14.386   c-0.285,1.574-0.307,2.673-0.066,3.293c0.243,0.622,0.945,1.037,2.109,1.248l35.659,6.464   C80.132,320.501,80.936,320.358,81.403,319.866z"
   id="path147"
   style="fill:#ffffff;fill-opacity:1" />
</g>
<g
   id="g149"
   style="fill:#ffffff;fill-opacity:1">
	<path
   fill="#292526"
   d="M52.476,252.237l15.675-37.105l11.299,4.358l-0.663,1.57c-3.828-0.711-6.521-0.697-8.08,0.042   c-1.558,0.739-3.14,3.009-4.747,6.812l-1.543,3.653l33.58,14.187c2.528,1.068,4.262,1.334,5.201,0.799   c0.939-0.534,2.068-2.096,3.388-4.686l1.218,0.515l-8.081,19.129l-1.218-0.515c0.961-2.866,1.234-4.79,0.822-5.77   c-0.414-0.979-2.033-2.067-4.861-3.262l-32.811-13.861l-1.557,3.685c-1.534,3.631-2.055,6.325-1.563,8.081   c0.491,1.756,2.36,3.709,5.604,5.86l-0.677,1.602L52.476,252.237z"
   id="path151"
   style="fill:#ffffff;fill-opacity:1" />
</g>
<g
   id="g153"
   style="fill:#ffffff;fill-opacity:1">
	<path
   fill="#292526"
   d="M79.971,204.397c-1.238-5.94-0.163-11.625,3.227-17.054c3.402-5.448,8.054-8.914,13.955-10.395   c6.393-1.613,12.814-0.405,19.265,3.623c6.551,4.09,10.46,9.43,11.732,16.019c1.129,5.899,0.041,11.494-3.263,16.785   c-3.537,5.665-8.391,9.169-14.56,10.51c-6.285,1.353-12.495,0.113-18.633-3.72C85.244,216.137,81.335,210.881,79.971,204.397z    M112.4,218.366c4.601-0.604,8.039-2.727,10.313-6.37c2.225-3.564,2.648-7.535,1.268-11.914c-1.38-4.379-5.326-8.602-11.837-12.667   c-6.588-4.114-12.147-5.806-16.677-5.076c-4.529,0.729-7.888,2.847-10.077,6.352c-2.263,3.624-2.658,7.639-1.187,12.048   c1.471,4.408,5.394,8.602,11.766,12.581C102.323,217.288,107.799,218.969,112.4,218.366z"
   id="path155"
   style="fill:#ffffff;fill-opacity:1" />
</g>
<g
   id="g157"
   style="fill:#ffffff;fill-opacity:1">
	<path
   fill="#292526"
   d="M136.522,190.767c1.779-2.246,2.678-3.925,2.693-5.038c0.016-1.111-0.967-2.549-2.949-4.311l-23.688-21.048   c-1.958-1.741-3.5-2.546-4.622-2.418c-1.122,0.13-2.687,1.216-4.69,3.263l-0.988-0.878l13.25-14.912   c3.786-4.26,7.476-7.032,11.071-8.317c3.595-1.284,7.066-0.439,10.414,2.537c2.516,2.235,3.647,4.807,3.392,7.714   c-0.132,1.651-0.833,3.68-2.103,6.087c2.761-1.92,5.6-3.136,8.516-3.646c2.918-0.509,5.615,0.336,8.092,2.537   c4.157,3.694,5.306,8.156,3.448,13.386c-0.987,2.75-2.795,5.605-5.426,8.567l-15.421,17.354L136.522,190.767z M134.992,153.577   c0.96-3.179,0.094-5.965-2.597-8.357c-3.179-2.824-6.479-3.43-9.901-1.817c-1.886,0.899-4.13,2.812-6.733,5.742   c-0.986,1.11-1.499,1.88-1.539,2.309c-0.04,0.43,0.366,1.023,1.217,1.779l12.035,10.694l4.427-5.14   C133.452,156.971,134.482,155.235,134.992,153.577z M153.315,166.788c0.575-2.777-0.636-5.498-3.635-8.163   c-2.981-2.649-5.974-3.384-8.975-2.205c-3.002,1.179-5.981,3.433-8.939,6.761c-0.724,0.815-1.182,1.331-1.375,1.547   c-0.193,0.217-0.498,0.542-0.915,0.978l13.26,11.783c0.919,0.816,1.743,1.084,2.474,0.803c0.731-0.28,1.936-1.366,3.615-3.256   C151.242,172.315,152.74,169.565,153.315,166.788z"
   id="path159"
   style="fill:#ffffff;fill-opacity:1" />
</g>
<g
   id="g161"
   style="fill:#ffffff;fill-opacity:1">
	<path
   fill="#292526"
   d="M167.446,157.702l-0.827-1.03c1.298-1.309,1.939-2.706,1.919-4.193c-0.019-1.486-0.8-4.97-2.347-10.449   l-10.307-36.554l1.106-0.888l39.119,20.387c2.597,1.347,4.369,2.045,5.317,2.097c0.949,0.052,2.146-0.354,3.593-1.22l0.827,1.03   L191.72,138.22l-0.827-1.03c1.507-1.447,2.413-2.463,2.717-3.047c0.304-0.583,0.131-1.28-0.52-2.091   c-0.216-0.27-0.689-0.673-1.419-1.213c-0.73-0.539-1.561-1.055-2.493-1.55l-6.513-3.56l-14.642,11.75   c1.475,4.793,2.393,7.702,2.756,8.729c0.362,1.026,0.731,1.772,1.106,2.24c0.751,0.937,1.651,1.279,2.699,1.03   c0.643-0.16,1.657-0.708,3.043-1.643l0.827,1.03L167.446,157.702z M179.921,124.23l-18.646-10.191l5.883,20.434L179.921,124.23z"
   id="path163"
   style="fill:#ffffff;fill-opacity:1" />
</g>
<g
   id="g165"
   style="fill:#ffffff;fill-opacity:1">
	<path
   fill="#292526"
   d="M212.304,69.893c2.742-0.651,4.256-1.055,4.54-1.212c0.587-0.327,1.054-0.799,1.4-1.417   c0.347-0.617,0.43-1.327,0.249-2.129l1.308-0.727l8.356,13.661l-1.429,0.795c-2.375-2.313-4.705-3.95-6.99-4.909   c-4.334-1.779-8.66-1.47-12.976,0.931c-4.357,2.424-6.96,6.128-7.81,11.111c-0.849,4.984,0.406,10.495,3.766,16.534   c3.089,5.552,7.009,9.176,11.76,10.871c4.75,1.695,9.355,1.303,13.813-1.178c3.222-1.792,5.762-4.214,7.621-7.265   c1.075-1.739,2.054-4.01,2.938-6.81l1.798,0.513c-0.409,2.51-1.27,4.992-2.584,7.448c-2.245,4.168-5.404,7.386-9.477,9.652   c-6.687,3.72-13.186,4.537-19.496,2.448c-5.826-1.934-10.385-5.859-13.677-11.776c-3.371-6.059-4.285-12.21-2.745-18.455   c1.631-6.56,5.679-11.638,12.143-15.235C207.064,71.493,209.561,70.542,212.304,69.893z"
   id="path167"
   style="fill:#ffffff;fill-opacity:1" />
</g>
<g
   id="g169"
   style="fill:#ffffff;fill-opacity:1">
	<path
   fill="#292526"
   d="M261.189,49.559c2.812-0.196,4.37-0.35,4.676-0.46c0.633-0.227,1.171-0.616,1.613-1.17   c0.441-0.553,0.639-1.24,0.591-2.06l1.407-0.505l6.029,14.835l-1.538,0.552c-1.969-2.668-4.002-4.661-6.101-5.978   c-3.988-2.459-8.307-2.856-12.956-1.187c-4.692,1.685-7.861,4.917-9.508,9.698c-1.646,4.78-1.302,10.421,1.033,16.925   c2.147,5.979,5.427,10.192,9.841,12.635c4.413,2.443,9.021,2.804,13.822,1.08c3.47-1.246,6.369-3.225,8.698-5.933   c1.344-1.541,2.678-3.623,4.004-6.242l1.69,0.797c-0.811,2.41-2.062,4.721-3.757,6.93c-2.893,3.748-6.531,6.41-10.918,7.985   c-7.202,2.586-13.747,2.338-19.634-0.746c-5.435-2.854-9.297-7.467-11.585-13.839c-2.343-6.525-2.248-12.744,0.286-18.656   c2.673-6.207,7.491-10.561,14.453-13.062C255.759,50.289,258.376,49.755,261.189,49.559z"
   id="path171"
   style="fill:#ffffff;fill-opacity:1" />
</g>
<g
   id="g173"
   style="fill:#ffffff;fill-opacity:1">
	<path
   fill="#292526"
   d="M289.257,46.731c3.587-4.895,8.531-7.899,14.834-9.012c6.325-1.117,12.013,0.021,17.063,3.416   c5.475,3.672,8.874,9.253,10.196,16.743c1.343,7.604-0.009,14.083-4.056,19.437c-3.63,4.786-8.516,7.72-14.658,8.805   c-6.577,1.161-12.428-0.101-17.553-3.789c-5.21-3.766-8.443-9.21-9.702-16.335C284.06,58.505,285.352,52.083,289.257,46.731z    M300.573,80.178c3.526,3.017,7.404,4.151,11.634,3.404c4.138-0.73,7.372-3.073,9.703-7.029c2.331-3.956,2.829-9.713,1.495-17.271   c-1.351-7.649-3.812-12.913-7.386-15.792c-3.573-2.877-7.394-3.957-11.463-3.239c-4.207,0.743-7.456,3.135-9.748,7.178   s-2.785,9.764-1.479,17.163C294.632,71.969,297.046,77.163,300.573,80.178z"
   id="path175"
   style="fill:#ffffff;fill-opacity:1" />
</g>
<g
   id="g177"
   style="fill:#ffffff;fill-opacity:1">
	<path
   fill="#292526"
   d="M355.887,33.094l40.241,1.765l-0.148,12.11l-1.702-0.075c-0.668-3.835-1.619-6.356-2.854-7.558   c-1.235-1.204-3.916-1.896-8.039-2.077l-3.962-0.174l-1.597,36.418c-0.12,2.742,0.233,4.46,1.062,5.154   c0.827,0.695,2.686,1.209,5.572,1.543l-0.058,1.32l-20.746-0.91l0.058-1.32c3.021-0.099,4.92-0.512,5.695-1.241   c0.774-0.728,1.229-2.625,1.363-5.692l1.561-35.585l-3.996-0.175c-3.938-0.172-6.646,0.278-8.119,1.351   c-1.475,1.072-2.655,3.505-3.541,7.295l-1.737-0.076L355.887,33.094z"
   id="path179"
   style="fill:#ffffff;fill-opacity:1" />
</g>
<g
   id="g181"
   style="fill:#ffffff;fill-opacity:1">
	<path
   fill="#292526"
   d="M389.669,81.082l0.245-1.299c1.838,0.137,3.316-0.285,4.434-1.267c1.117-0.981,3.255-3.84,6.412-8.577   l21.068-31.6l1.393,0.263l9.95,42.976c0.666,2.848,1.287,4.648,1.865,5.403c0.577,0.754,1.665,1.399,3.264,1.936l-0.245,1.299   l-17.802-3.36l0.246-1.299c2.079,0.205,3.439,0.232,4.081,0.084c0.641-0.15,1.058-0.734,1.251-1.755   c0.063-0.339,0.062-0.962-0.002-1.867c-0.065-0.904-0.213-1.872-0.442-2.902l-1.532-7.263l-18.447-3.482   c-2.683,4.237-4.297,6.827-4.84,7.769c-0.544,0.943-0.871,1.708-0.982,2.298c-0.223,1.18,0.101,2.086,0.973,2.72   c0.539,0.384,1.615,0.799,3.227,1.244l-0.245,1.299L389.669,81.082z M423.21,68.794l-4.384-20.792l-11.698,17.756L423.21,68.794z"
   id="path183"
   style="fill:#ffffff;fill-opacity:1" />
</g>
<g
   id="g185"
   style="fill:#ffffff;fill-opacity:1">
	<path
   fill="#292526"
   d="M438.254,88.856c1.855,0.485,3.388,0.529,4.597,0.132c1.207-0.398,3.837-1.777,7.888-4.137l15.115-8.808   l-3.229-13.463c-1.404-5.865-2.534-9.611-3.392-11.24c-0.856-1.628-2.341-2.894-4.454-3.797l0.471-1.235l20.032,7.62l-0.471,1.235   c-1.954-0.668-3.26-1.017-3.917-1.044c-0.99-0.056-1.667,0.392-2.028,1.343c-0.23,0.605-0.29,1.411-0.18,2.417   c0.051,0.514,0.163,1.125,0.338,1.834l3.081,12.565l10.93-6.246c1.601-0.905,2.746-1.685,3.438-2.34   c0.419-0.386,0.701-0.775,0.85-1.165c0.371-0.975,0.146-1.806-0.677-2.491c-0.508-0.417-1.525-0.927-3.054-1.534l0.47-1.235   l15.771,5.999l-0.47,1.235c-1.794-0.632-3.277-0.874-4.45-0.725c-1.862,0.261-4.462,1.358-7.802,3.29l-14.214,8.411l5.666,23.063   c0.597,2.481,1.243,4.157,1.94,5.028c0.695,0.872,1.86,1.767,3.493,2.686l-0.47,1.235l-19.572-7.445l0.47-1.235   c1.896,0.671,3.271,1.007,4.119,1.004c0.85-0.002,1.428-0.407,1.735-1.216c0.266-0.699,0.213-2.045-0.16-4.038   c-0.373-1.992-1.547-7.117-3.521-15.371l-11.545,6.839c-1.689,1.01-2.886,1.764-3.591,2.261c-1.112,0.787-1.766,1.438-1.963,1.956   c-0.36,0.949-0.056,1.829,0.915,2.642c0.575,0.491,1.643,1.094,3.202,1.811l-0.471,1.235l-15.361-5.843L438.254,88.856z"
   id="path187"
   style="fill:#ffffff;fill-opacity:1" />
</g>
<g
   id="g189"
   style="fill:#ffffff;fill-opacity:1">
	<path
   fill="#292526"
   d="M496.08,113.884l0.732-1.1c1.64,0.844,3.165,1.032,4.577,0.564c1.411-0.467,4.496-2.265,9.252-5.394   l31.731-20.869l1.18,0.786l-7.615,43.451c-0.499,2.882-0.629,4.783-0.392,5.703c0.236,0.919,0.987,1.938,2.248,3.056l-0.732,1.1   l-15.077-10.042l0.732-1.1c1.836,1,3.077,1.557,3.726,1.67s1.262-0.262,1.837-1.127c0.191-0.288,0.434-0.861,0.727-1.72   c0.294-0.858,0.535-1.806,0.726-2.845l1.425-7.284l-15.625-10.408c-4.124,2.854-6.62,4.608-7.487,5.264   c-0.87,0.655-1.47,1.232-1.803,1.731c-0.665,0.999-0.721,1.961-0.167,2.884c0.348,0.564,1.176,1.365,2.487,2.404l-0.733,1.1   L496.08,113.884z M531.756,115.664l4.081-20.853l-17.702,11.781L531.756,115.664z"
   id="path191"
   style="fill:#ffffff;fill-opacity:1" />
</g>
<g
   id="g193"
   style="fill:#ffffff;fill-opacity:1">
	<path
   fill="#292526"
   d="M537.818,140.055c2.338,1.816,4.164,2.64,5.48,2.471s3.27-1.611,5.863-4.326l21.676-22.696l0.088-1.502   c0.094-1.609-0.023-2.77-0.352-3.484s-1.006-1.592-2.029-2.635l0.912-0.956l8.791,8.396l-3.654,43.64l16.35-17.119   c2.689-2.816,4.02-5.049,3.994-6.699c-0.029-1.079-0.912-2.606-2.646-4.582l0.912-0.956l12.1,11.555l-0.914,0.956   c-2.152-1.672-3.918-2.444-5.293-2.314c-1.375,0.13-3.352,1.545-5.93,4.245l-25.898,27.116l-0.879-0.84l4.189-50.014   l-19.154,20.054c-2.688,2.815-4.029,5.042-4.023,6.681c0.008,1.066,0.848,2.588,2.518,4.566l-0.914,0.956l-12.098-11.555   L537.818,140.055z"
   id="path195"
   style="fill:#ffffff;fill-opacity:1" />
</g>
<g
   id="g197"
   style="fill:#ffffff;fill-opacity:1">
	<path
   fill="#292526"
   d="M573.853,174.515c1.761,1.929,3.14,3.017,4.137,3.263c0.996,0.246,2.572-0.423,4.729-2.007l25.535-18.763   c2.093-1.538,3.212-2.835,3.356-3.892c0.146-1.055-0.491-2.704-1.906-4.944l1.064-0.783l11.37,15.473   c3.831,5.214,6.212,10.255,7.143,15.125c1.695,8.768-1.429,16.07-9.37,21.906c-2.859,2.101-6.008,3.514-9.444,4.242   c-3.438,0.727-6.908,0.566-10.413-0.484c-2.22-0.671-4.21-1.598-5.97-2.779c-3.24-2.138-6.432-5.346-9.576-9.625l-11.72-15.949   L573.853,174.515z M583.863,184.965c0.037,0.678,0.584,1.735,1.642,3.175c3.296,4.485,6.896,7.523,10.801,9.113   c5.998,2.442,12.299,1.237,18.901-3.614c5.891-4.329,8.977-9.418,9.26-15.265c0.236-5.008-1.547-10.101-5.351-15.277   c-0.947-1.289-1.729-2.059-2.346-2.311c-0.617-0.252-1.403-0.028-2.356,0.673l-29.204,21.459   C584.275,183.604,583.826,184.287,583.863,184.965z"
   id="path199"
   style="fill:#ffffff;fill-opacity:1" />
</g>
<g
   id="g201"
   style="fill:#ffffff;fill-opacity:1">
	<path
   fill="#292526"
   d="M652.864,210.352l16.228,36.866l-10.925,5.227l-0.687-1.56c3.144-2.296,4.983-4.264,5.515-5.905   c0.532-1.64-0.033-4.35-1.696-8.127l-1.598-3.63l-33.364,14.687c-2.512,1.105-3.896,2.184-4.152,3.234   c-0.256,1.05,0.105,2.943,1.083,5.68l-1.21,0.533l-8.366-19.006l1.21-0.533c1.426,2.666,2.637,4.186,3.633,4.558   c0.996,0.373,2.898-0.06,5.708-1.296l32.601-14.35l-1.611-3.661c-1.589-3.608-3.19-5.836-4.805-6.684   c-1.614-0.847-4.317-0.83-8.109,0.054l-0.7-1.592L652.864,210.352z"
   id="path203"
   style="fill:#ffffff;fill-opacity:1" />
</g>
<g
   id="g205"
   style="fill:#ffffff;fill-opacity:1">
	<path
   fill="#292526"
   d="M627.68,266.45c0.943,2.581,1.892,4.093,2.845,4.537c0.952,0.444,2.856,0.29,5.713-0.465l29.831-7.875   c2.422-0.639,3.912-1.422,4.47-2.35c0.56-0.926,0.611-2.661,0.156-5.204l1.277-0.337l5.034,19.069   c1.048,3.969,1.417,7.409,1.108,10.32c-0.578,5.524-3.419,8.961-8.523,10.309c-3.425,0.904-6.351,0.483-8.775-1.263   c-2.425-1.747-4.435-4.46-6.028-8.14l-13.734,18.807c-0.837,1.156-1.385,2.236-1.644,3.24c-0.258,1.003-0.273,2.207-0.046,3.61   l-1.278,0.337l-2.929-11.094l16.674-22.83l-0.966-2.978l-13.575,3.583c-2.548,0.672-4.06,1.485-4.537,2.439   c-0.478,0.954-0.484,2.759-0.021,5.419l-1.278,0.337l-5.052-19.137L627.68,266.45z M657.773,283.688   c2.464,3.258,5.766,4.342,9.906,3.249c3.983-1.052,6.27-3.407,6.86-7.063c0.321-1.957,0.102-4.38-0.662-7.272   c-0.516-1.951-0.971-3.108-1.366-3.471c-0.395-0.364-1.106-0.409-2.137-0.137l-16.954,4.476   C654.908,278.376,656.359,281.783,657.773,283.688z"
   id="path207"
   style="fill:#ffffff;fill-opacity:1" />
</g>
<g
   id="g209"
   style="fill:#ffffff;fill-opacity:1">
	<path
   fill="#292526"
   d="M638.215,310.9l1.316-0.117c0.367,1.806,1.176,3.114,2.424,3.922c1.249,0.808,4.582,2.088,9.999,3.838   l36.137,11.682l0.126,1.412l-38.651,21.261c-2.56,1.415-4.124,2.502-4.692,3.264c-0.568,0.761-0.894,1.982-0.975,3.667   l-1.316,0.117l-1.607-18.044l1.316-0.117c0.368,2.057,0.712,3.373,1.029,3.95c0.318,0.576,0.994,0.818,2.029,0.727   c0.344-0.031,0.942-0.201,1.796-0.509c0.853-0.31,1.743-0.715,2.672-1.216l6.573-3.448l-1.666-18.7   c-4.806-1.429-7.737-2.278-8.792-2.545c-1.055-0.267-1.88-0.374-2.478-0.32c-1.196,0.106-1.98,0.665-2.354,1.675   c-0.223,0.624-0.329,1.771-0.318,3.444l-1.316,0.117L638.215,310.9z M659.16,339.836l18.816-9.872l-20.268-6.429L659.16,339.836z"
   id="path211"
   style="fill:#ffffff;fill-opacity:1" />
</g>
<g
   id="g213"
   style="fill:#ffffff;fill-opacity:1">
	<path
   fill="#292526"
   d="M643.905,360.256c0.057,2.611,0.378,4.338,0.967,5.179c0.587,0.841,2.214,1.375,4.88,1.602l31.574,2.686   c2.588,0.22,4.283-0.02,5.089-0.72c0.803-0.7,1.41-2.358,1.818-4.977l1.317,0.111l-1.626,19.132   c-0.549,6.446-2.076,11.809-4.58,16.088c-4.496,7.717-11.654,11.157-21.475,10.322c-3.535-0.3-6.835-1.309-9.9-3.023   c-3.067-1.716-5.573-4.122-7.521-7.22c-1.229-1.967-2.118-3.974-2.665-6.021c-1.032-3.742-1.321-8.259-0.872-13.55l1.677-19.72   L643.905,360.256z M644.561,374.712c-0.418,0.534-0.702,1.691-0.854,3.471c-0.472,5.545,0.239,10.201,2.132,13.971   c2.907,5.785,8.444,9.025,16.607,9.72c7.284,0.619,12.957-1.18,17.019-5.395c3.475-3.615,5.485-8.622,6.029-15.022   c0.136-1.594,0.053-2.689-0.246-3.284c-0.297-0.597-1.037-0.944-2.216-1.044l-36.11-3.07   C645.767,373.959,644.98,374.177,644.561,374.712z"
   id="path215"
   style="fill:#ffffff;fill-opacity:1" />
</g>
<g
   id="g217"
   style="fill:#ffffff;fill-opacity:1">
	<path
   fill="#292526"
   d="M639.407,409.322c-0.373,2.608-0.337,4.37,0.11,5.284c0.448,0.914,1.968,1.698,4.562,2.354l30.726,7.755   c2.449,0.618,4.145,0.651,5.086,0.1c0.94-0.552,1.824-2.087,2.651-4.604l1.282,0.324l-9.263,36.693l-9.941-2.258l0.442-1.754   c3.192,0.184,5.382-0.196,6.573-1.139c1.19-0.944,2.297-3.439,3.318-7.486l2.373-9.403c0.257-1.015,0.25-1.682-0.017-2   c-0.265-0.319-0.85-0.593-1.748-0.819l-15.413-3.891l-2.689,10.657c-0.744,2.945-0.781,4.934-0.113,5.963   c0.669,1.029,2.271,2.128,4.809,3.295l-0.408,1.619l-15.953-4.027l0.408-1.619c2.807,0.158,4.745-0.058,5.815-0.649   c1.069-0.59,1.973-2.348,2.711-5.271l2.689-10.657l-17.099-4.315c-1.372-0.347-2.291-0.118-2.757,0.687s-1.245,3.369-2.336,7.692   c-1.183,4.684-1.543,8.269-1.082,10.756c0.46,2.487,2.433,5.116,5.92,7.886l-0.485,1.922l-10.877-6.082l9.424-37.334   L639.407,409.322z"
   id="path219"
   style="fill:#ffffff;fill-opacity:1" />
</g>
<g
   id="g221"
   style="fill:#ffffff;fill-opacity:1">
	<path
   fill="#292526"
   d="M623.204,466.461c-1.139,2.63-1.574,4.483-1.302,5.562c0.271,1.078,1.592,2.213,3.963,3.403l28.319,14.218   c2.342,1.175,4.037,1.556,5.089,1.142c1.052-0.415,2.282-1.869,3.69-4.363l1.181,0.593l-8.95,17.828   c-2.557,5.093-5.405,8.724-8.546,10.894c-3.142,2.169-6.714,2.249-10.717,0.239c-3.009-1.511-4.765-3.702-5.269-6.576   c-0.299-1.629-0.146-3.771,0.459-6.425c-2.171,2.568-4.6,4.476-7.286,5.722c-2.688,1.245-5.511,1.126-8.472-0.361   c-4.97-2.494-7.233-6.509-6.789-12.04c0.244-2.912,1.254-6.139,3.031-9.679l10.416-20.748L623.204,466.461z M613.172,493.964   c0.161,2.83,2.034,5.146,5.619,6.946c3.564,1.789,6.646,1.727,9.241-0.188s4.893-4.86,6.891-8.84   c0.489-0.975,0.798-1.591,0.929-1.85c0.13-0.26,0.339-0.653,0.631-1.182l-15.854-7.959c-1.099-0.552-1.965-0.597-2.599-0.137   c-0.633,0.461-1.517,1.82-2.65,4.08C613.748,488.089,613.01,491.131,613.172,493.964z M634.286,501.994   c-0.107,3.32,1.448,5.788,4.667,7.404c3.799,1.907,7.145,1.641,10.033-0.802c1.592-1.355,3.265-3.784,5.023-7.286   c0.666-1.326,0.962-2.202,0.89-2.628c-0.071-0.425-0.616-0.894-1.634-1.404l-14.389-7.224l-2.949,6.108   C634.896,498.318,634.348,500.261,634.286,501.994z"
   id="path223"
   style="fill:#ffffff;fill-opacity:1" />
</g>
<g
   id="g225"
   style="fill:#ffffff;fill-opacity:1">
	<path
   fill="#292526"
   d="M627.879,550.532l-1.065-0.783c1.473-2.314,2.154-4.015,2.048-5.102c-0.108-1.087-1.217-2.405-3.327-3.958   l-18.353-13.501c-3.008-2.213-5.654-3.526-7.939-3.941c-4.19-0.722-7.858,1.057-11.005,5.334c-3.449,4.688-4.195,8.99-2.239,12.905   c1.096,2.188,3.475,4.629,7.136,7.322l14.935,10.986c3.119,2.294,5.35,3.359,6.694,3.197c1.344-0.164,2.887-1.216,4.631-3.156   l1.065,0.783l-9.77,13.281l-1.065-0.784c1.392-2.401,1.924-4.248,1.595-5.542c-0.33-1.294-1.999-3.046-5.006-5.258l-14.935-10.986   c-3.96-2.913-6.604-5.794-7.935-8.644c-2.441-5.251-1.354-11.015,3.264-17.291c4.562-6.201,9.685-8.938,15.369-8.212   c3.059,0.38,6.363,1.875,9.912,4.486l17.933,13.191c2.092,1.538,3.669,2.203,4.732,1.991c1.062-0.212,2.475-1.339,4.235-3.383   l1.065,0.784L627.879,550.532z"
   id="path227"
   style="fill:#ffffff;fill-opacity:1" />
</g>
<g
   id="g229"
   style="fill:#ffffff;fill-opacity:1">
	<path
   fill="#292526"
   d="M573.612,546.792c-1.79,2.085-2.646,3.651-2.568,4.699s1.144,2.635,3.196,4.758l21.444,22.182   c1.741,1.801,3.153,2.718,4.234,2.753c1.082,0.035,2.621-0.768,4.616-2.407l0.919,0.951l-14.179,13.709   c-2.951,2.853-5.772,4.854-8.465,6.008c-5.103,2.194-9.488,1.395-13.157-2.401c-2.463-2.547-3.524-5.305-3.186-8.273   s1.726-6.047,4.157-9.237l-23.12-2.795c-1.418-0.166-2.627-0.116-3.63,0.148c-1.002,0.265-2.059,0.84-3.172,1.724l-0.918-0.95   l8.248-7.975l28.065,3.394l2.128-2.298l-9.759-10.094c-1.831-1.895-3.28-2.816-4.345-2.767c-1.065,0.05-2.645,0.925-4.74,2.629   l-0.918-0.95l14.229-13.757L573.612,546.792z M573.273,581.471c-1.64,3.742-0.971,7.153,2.006,10.232   c2.862,2.962,6.034,3.807,9.515,2.534c1.862-0.675,3.869-2.051,6.02-4.131c1.451-1.401,2.238-2.364,2.363-2.886   c0.123-0.522-0.186-1.167-0.925-1.933l-12.188-12.606C576.507,576.376,574.245,579.307,573.273,581.471z"
   id="path231"
   style="fill:#ffffff;fill-opacity:1" />
</g>
<g
   id="g233"
   style="fill:#ffffff;fill-opacity:1">
	<path
   fill="#292526"
   d="M540.583,578.491c-1.981,1.735-3.102,3.096-3.358,4.081c-0.256,0.984,0.387,2.57,1.928,4.758l18.254,25.901   c1.456,2.065,2.721,3.196,3.794,3.391c1.072,0.193,2.743-0.395,5.011-1.766l0.762,1.081l-30.934,21.8l-6.071-8.19l1.479-1.042   c2.302,2.219,4.211,3.358,5.729,3.418s3.981-1.112,7.394-3.518l7.928-5.586c0.855-0.604,1.286-1.111,1.292-1.526   c0.006-0.417-0.259-1.003-0.793-1.761l-9.157-12.994l-8.984,6.331c-2.482,1.75-3.807,3.232-3.971,4.45   c-0.163,1.217,0.336,3.094,1.501,5.632l-1.365,0.962l-9.478-13.448l1.365-0.962c2.025,1.947,3.636,3.046,4.834,3.295   c1.196,0.25,3.026-0.495,5.49-2.231l8.984-6.331l-10.158-14.415c-0.815-1.156-1.661-1.582-2.539-1.274   c-0.877,0.306-3.139,1.743-6.784,4.312c-3.948,2.782-6.558,5.268-7.829,7.454c-1.272,2.187-1.487,5.467-0.647,9.84l-1.62,1.142   l-4.289-11.701l31.475-22.181L540.583,578.491z"
   id="path235"
   style="fill:#ffffff;fill-opacity:1" />
</g>
<g
   id="g237"
   style="fill:#ffffff;fill-opacity:1">
	<path
   fill="#292526"
   d="M505.864,601.75l0.577,1.19c-1.558,0.984-2.493,2.205-2.807,3.658c-0.312,1.454-0.327,5.023-0.04,10.71   l1.902,37.932l-1.276,0.619l-33.594-28.592c-2.231-1.892-3.803-2.969-4.717-3.229c-0.912-0.261-2.171-0.132-3.772,0.391   l-0.577-1.19l16.299-7.905l0.577,1.19c-1.792,1.074-2.901,1.862-3.328,2.363c-0.426,0.501-0.413,1.22,0.04,2.154   c0.151,0.312,0.522,0.811,1.113,1.499c0.592,0.688,1.286,1.376,2.085,2.066l5.557,4.922l16.893-8.192   c-0.37-5.002-0.617-8.043-0.742-9.124c-0.124-1.08-0.317-1.891-0.579-2.43c-0.524-1.08-1.324-1.616-2.401-1.606   c-0.662,0.013-1.773,0.321-3.332,0.925l-0.577-1.19L505.864,601.75z M486.244,631.601l15.907,14.089l-1.183-21.23L486.244,631.601z   "
   id="path239"
   style="fill:#ffffff;fill-opacity:1" />
</g>
<g
   id="g241"
   style="fill:#ffffff;fill-opacity:1">
	<path
   fill="#292526"
   d="M454.981,674.083l-0.359-1.272c2.583-0.922,4.166-1.845,4.749-2.769c0.583-0.923,0.519-2.645-0.193-5.166   l-6.186-21.928c-1.014-3.594-2.294-6.257-3.843-7.988c-2.862-3.144-6.849-3.994-11.96-2.553c-5.602,1.58-8.833,4.516-9.695,8.807   c-0.479,2.399-0.103,5.787,1.132,10.161l5.033,17.844c1.051,3.727,2.157,5.938,3.317,6.636c1.16,0.696,3.025,0.814,5.594,0.355   l0.359,1.272l-15.868,4.477l-0.359-1.272c2.574-1.041,4.129-2.171,4.663-3.395c0.534-1.223,0.295-3.63-0.719-7.224l-5.034-17.844   c-1.334-4.731-1.65-8.629-0.949-11.694c1.299-5.643,5.698-9.522,13.197-11.638c7.41-2.09,13.134-1.102,17.172,2.963   c2.181,2.18,3.869,5.39,5.065,9.631l6.044,21.426c0.705,2.499,1.542,3.991,2.51,4.478c0.969,0.486,2.775,0.464,5.421-0.065   l0.358,1.272L454.981,674.083z"
   id="path243"
   style="fill:#ffffff;fill-opacity:1" />
</g>
</svg>